<svg version="1.1" id="Layer_1" xmlns="http://www.w3.org/2000/svg" xmlns:xlink="http://www.w3.org/1999/xlink" x="0px" y="0px"
	 width="100%" viewBox="0 0 450 450" enable-background="new 0 0 450 450" xml:space="preserve">
<path fill="none" opacity="1.000000" stroke="#000000" stroke-linecap="round" stroke-linejoin="round" stroke-width="7.000000"
	d="
M230.500000,245.000000 
	C236.090622,242.483841 242.404572,242.879517 248.048615,240.098663 
	C264.810455,231.840027 273.955872,218.888229 273.983734,199.999969 
	C274.038818,162.666733 274.001068,125.333336 273.998932,88.000000 
	C273.998566,82.036217 273.991943,82.007774 268.000000,82.004959 
	C243.000000,81.993179 218.000000,81.993187 193.000000,82.004951 
	C187.008041,82.007774 187.001419,82.036194 187.001083,88.000000 
	C186.998947,125.500000 186.942368,163.000122 187.024506,200.499939 
	C187.065094,219.036972 196.437408,231.702682 212.494522,240.010605 
	C218.004913,242.861679 224.355042,242.674011 230.000000,245.000000 
"/>
<path fill="none" opacity="1.000000" stroke="#000000" stroke-linecap="round" stroke-linejoin="round" stroke-width="7.000000"
	d="
M230.000000,245.500000 
	C230.000000,280.500000 229.991806,315.500000 230.021362,350.499969 
	C230.023041,352.500122 230.333344,354.500000 230.500015,356.500000 
"/>
<path fill="none" opacity="1.000000" stroke="#000000" stroke-linecap="round" stroke-linejoin="round" stroke-width="7.000000"
	d="
M262.000000,357.750000 
	C251.828735,357.686737 241.613205,359.155945 231.507065,356.967407 
	C229.747482,356.586365 228.611923,358.041504 226.999725,358.020050 
	C217.666946,357.895660 208.333328,357.833344 199.000000,357.750000 
"/>
<path fill="none" opacity="1.000000" stroke="#000000" stroke-linecap="round" stroke-linejoin="round" stroke-width="7.000000"
	d="
M200.500000,112.000000 
	C198.004196,112.835434 197.973999,114.827026 197.976807,117.000031 
	C198.012161,144.333313 197.535461,171.677414 198.167282,198.996124 
	C198.572128,216.500931 212.767670,229.560013 229.494919,230.145386 
	C248.400482,230.806976 263.403198,215.043640 263.106110,196.498306 
	C262.686981,170.338348 262.921997,144.166245 263.065247,118.000359 
	C263.094208,112.711998 262.289124,111.885818 256.999390,111.933929 
	C238.334274,112.103722 219.666672,112.000000 201.000000,112.000000 
"/>
</svg>